<?xml version="1.0" encoding="UTF-8" standalone="no"?>
<svg width="280px" height="70px" viewBox="0 0 280 70" version="1.1" xmlns="http://www.w3.org/2000/svg" xmlns:xlink="http://www.w3.org/1999/xlink" xmlns:sketch="http://www.bohemiancoding.com/sketch/ns">
    <title>masthead</title>
    <description>Created with Sketch (http://www.bohemiancoding.com/sketch)</description>
    <defs>
        <filter x="-20%" y="-20%" width="140%" height="140%" filterUnits="objectBoundingBox" id="filter-1">
            <feOffset dx="0" dy="0" in="SourceAlpha" result="shadowOffsetOuter1"></feOffset>
            <feGaussianBlur stdDeviation="4" in="shadowOffsetOuter1" result="shadowBlurOuter1"></feGaussianBlur>
            <feColorMatrix values="0 0 0 0 0   0 0 0 0 0   0 0 0 0 0  0 0 0 0.7 0" in="shadowBlurOuter1" type="matrix" result="shadowMatrixOuter1"></feColorMatrix>
            <feMerge>
                <feMergeNode in="shadowMatrixOuter1"></feMergeNode>
                <feMergeNode in="SourceGraphic"></feMergeNode>
            </feMerge>
        </filter>
    </defs>
    <g id="Orange-Accents" stroke="none" stroke-width="1" fill="none" fill-rule="evenodd" sketch:type="MSPage">
        <rect d="M-370,-30 L-370,110 L1330,110 L1330,-30 L-370,-30 Z M-370,-30" id="Header" fill="#5A5A5A" sketch:type="MSShapeGroup" x="-370" y="-30" width="1700" height="140"></rect>
        <g id="Masthead" sketch:type="MSLayerGroup" transform="translate(9.000000, 12.000000)">
            <path d="M10.3800022,29.4000001 C16.4200032,29.4000001 19.9200038,26.4799996 19.9200038,21.6599988 C19.9200038,17.8999982 17.4400034,15.5599978 12.9800026,14.8999977 C16.6400032,13.9999975 18.7600036,11.2799971 18.7600036,8.29999661 C18.7600036,3.73999586 15.7800031,1.09999543 9.34000202,1.09999543 L1.20000069,1.09999543 L1.20000069,29.4000001 L10.3800022,29.4000001 Z M10.3600022,15.8399978 C15.100003,15.8399978 17.8800034,18.0399982 17.8800034,21.6199988 C17.8800034,25.5199994 15.320003,27.7599998 10.3400022,27.7599998 L3.24000102,27.7599998 L3.24000102,15.8399978 L10.3600022,15.8399978 Z M3.24000102,2.71999569 L9.34000202,2.71999569 C14.3800028,2.71999569 16.7400032,4.69999602 16.7400032,8.51999664 C16.7400032,11.4399971 14.5800029,14.3399976 9.38000203,14.3399976 L3.24000102,14.3399976 L3.24000102,2.71999569 Z M33.1800017,16.599998 C34.2800019,16.599998 34.660002,16.819998 35.120002,17.3999981 L44.1800035,28.88 C44.4800036,29.26 44.7600036,29.4000001 45.1800037,29.4000001 L46.960004,29.4000001 L37.2200024,17.1599981 C36.9600023,16.819998 36.6800023,16.559998 36.3600022,16.3599979 C41.3000031,15.8199978 44.4000036,12.8199973 44.4000036,8.53999665 C44.4000036,3.65999585 41.200003,1.09999543 34.660002,1.09999543 L27.4400008,1.09999543 L27.4400008,29.4000001 L29.4800011,29.4000001 L29.4800011,16.599998 L33.1800017,16.599998 Z M29.4800011,2.71999569 L34.660002,2.71999569 C39.7000028,2.71999569 42.4000032,4.63999601 42.4000032,8.65999667 C42.4000032,12.5799973 39.4400028,15.0799977 34.4000019,15.0799977 L29.4800011,15.0799977 L29.4800011,2.71999569 Z M54.8800011,29.4000001 L52.8200008,29.4000001 L52.8200008,1.09999543 L54.8800011,1.09999543 L54.8800011,29.4000001 Z M84.6000041,24.6399993 C84.440004,24.6399993 84.340004,24.7199993 84.200004,24.8199993 C81.9800036,26.8799997 79.7600033,27.9599998 75.7400026,27.9599998 C69.2800015,27.9599998 64.4200008,23.2199991 64.4200008,15.2399977 C64.4200008,7.45999647 69.3000016,2.53999566 76.1800027,2.53999566 C81.8000036,2.53999566 83.5600039,5.35999613 84.280004,5.35999613 C84.500004,5.35999613 84.6800041,5.27999611 84.7800041,5.11999609 L85.4000042,4.21999594 C82.9000038,1.99999557 80.2800034,0.779995374 76.1800027,0.779995374 C67.9600013,0.779995374 62.3200004,6.65999634 62.3200004,15.2399977 C62.3200004,23.9999992 67.7800013,29.7200001 75.6200026,29.7200001 C80.3000034,29.7200001 83.4000039,28.1399999 85.7400042,25.6399994 L84.9400041,24.7799993 C84.8400041,24.6799993 84.7400041,24.6399993 84.6000041,24.6399993 Z M109.140003,1.09999543 L109.140003,2.79999571 L94.240001,2.79999571 L94.240001,14.2399976 L106.640003,14.2399976 L106.640003,15.8999979 L94.240001,15.8999979 L94.240001,27.6999998 L109.140003,27.6999998 L109.140003,29.4000001 L92.1800007,29.4000001 L92.1800007,1.09999543 L109.140003,1.09999543 Z M147.360005,15.2399977 C147.360005,6.51999632 141.900004,1.09999543 133.860002,1.09999543 L123.540001,1.09999543 L123.540001,29.4000001 L133.860002,29.4000001 C141.900004,29.4000001 147.360005,23.9799992 147.360005,15.2399977 C147.360005,15.2399977 147.360005,23.9799992 147.360005,15.2399977 Z M145.240004,15.2399977 C145.240004,23.159999 140.680003,27.7399998 133.860002,27.7399998 L125.600001,27.7399998 L125.600001,2.7599957 L133.860002,2.7599957 C140.680003,2.7599957 145.240004,7.33999645 145.240004,15.2399977 C145.240004,15.2399977 145.240004,7.33999645 145.240004,15.2399977 Z M170.900003,1.09999543 L170.900003,2.79999571 L156.000001,2.79999571 L156.000001,14.2399976 L168.400003,14.2399976 L168.400003,15.8999979 L156.000001,15.8999979 L156.000001,27.6999998 L170.900003,27.6999998 L170.900003,29.4000001 L153.940001,29.4000001 L153.940001,1.09999543 L170.900003,1.09999543 Z M191.740003,3.61999584 C189.820003,1.69999553 187.540002,0.779995374 184.600002,0.779995374 C179.360001,0.779995374 176.42,4.29999595 176.42,8.07999657 C176.42,17.7599982 190.620003,13.4599975 190.620003,21.4399988 C190.620003,25.1399994 188.000002,28.0199998 183.520002,28.0199998 C178.660001,28.0199998 177.000001,24.8399993 176.24,24.8399993 C176.02,24.8399993 175.84,24.9399993 175.68,25.1399994 L175.12,26.0199995 C177.140001,28.3199999 179.740001,29.7200001 183.480002,29.7200001 C189.220003,29.7200001 192.540003,25.8999995 192.540003,21.1399987 C192.540003,11.8999972 178.340001,15.6199978 178.340001,7.97999655 C178.340001,5.01999607 180.540001,2.47999565 184.620002,2.47999565 C188.720003,2.47999565 190.060003,4.87999605 190.740003,4.87999605 C190.960003,4.87999605 191.140003,4.75999603 191.260003,4.53999599 C191.260003,4.53999599 191.140003,4.75999603 191.260003,4.53999599 L191.740003,3.61999584 Z M201.280001,29.4000001 L199.220001,29.4000001 L199.220001,1.09999543 L201.280001,1.09999543 L201.280001,29.4000001 Z M222.600003,28.0599998 C215.620002,28.0599998 210.820001,23.2399991 210.820001,15.2399977 C210.820001,7.37999646 215.520002,2.53999566 222.860003,2.53999566 C228.420004,2.53999566 230.440004,4.93999606 231.240004,5.25999611 C231.340004,5.31999612 231.460004,5.33999612 231.580004,5.33999612 C231.800004,5.33999612 231.960004,5.23999611 232.080004,5.03999607 L232.620004,4.15999593 C230.120004,1.97999557 227.260003,0.779995374 222.920003,0.779995374 C214.220001,0.779995374 208.72,6.49999631 208.72,15.2399977 C208.72,23.9999992 214.300001,29.7200001 222.460003,29.7200001 C227.200003,29.7200001 230.360004,28.5999999 233.180004,26.6199996 L233.180004,16.559998 L225.360003,16.559998 L225.360003,17.6799981 C225.360003,17.9199982 225.580003,18.1399982 225.880003,18.1399982 L231.320004,18.1399982 L231.320004,25.7599995 C228.800004,27.1999997 226.520003,28.0599998 222.600003,28.0599998 Z M241.380001,1.09999543 L240.380001,1.09999543 L240.380001,29.4000001 L242.160001,29.4000001 L242.160001,5.57999616 C242.160001,5.2199961 242.140001,4.83999604 242.100001,4.43999597 L260.500004,29 C260.680004,29.26 260.940004,29.4000001 261.240004,29.4000001 L262.220004,29.4000001 L262.220004,1.09999543 L260.420004,1.09999543 L260.420004,24.8399993 C260.420004,25.2199994 260.440004,25.5999994 260.480004,25.9999995 L242.160001,1.47999549 C241.920001,1.15999544 241.760001,1.09999543 241.380001,1.09999543 Z M241.380001,1.09999543" id="BRICE-DESIGN" fill="#E6E6E6" filter="url(#filter-1)" sketch:type="MSShapeGroup"></path>
            <text id="Interiors-Consultanc" fill="#D8D8D8" sketch:type="MSTextLayer" font-family="Lato" font-size="12" font-weight="normal" sketch:alignment="middle" line-spacing="40" letter-spacing="0.6">
                <tspan x="0.508" y="27.600039" fill="#A1A1A1">Interiors Consultancy &amp; Project Management</tspan>
            </text>
        </g>
        <rect d="M-118,48 L-118,50 L1011,50 L1011,48 L-118,48 Z M-118,48" id="Rectangle-31" fill="#FF9100" sketch:type="MSShapeGroup" x="-118" y="48" width="1129" height="2"></rect>
    </g>
</svg>